<svg width="137" height="61" viewBox="0 0 137 61" fill="none" xmlns="http://www.w3.org/2000/svg">
<g clip-path="url(#clip0_7349_15336)">
<path d="M82.8505 13.6111C81.254 13.7719 80.7689 14.0219 80.178 14.5221C79.2695 15.317 79.2871 16.7281 79.2871 19.3985V38.9846C79.2959 47.2727 74.6212 49.702 69.3909 49.702H69.3556C63.1991 49.702 60.6588 46.4243 59.9091 41.5925H61.6644C62.37 44.4773 64.6103 46.0581 66.8065 46.0849C71.9046 46.1474 71.5871 40.9763 71.5871 37.3323V19.3985C71.5871 16.7281 71.6047 15.2544 70.6962 14.4685C70.5963 14.3911 70.4963 14.3226 70.3964 14.2631C70.2964 14.1976 70.1906 14.141 70.0788 14.0934C69.9671 14.0398 69.8554 13.9951 69.7437 13.9594C69.6261 13.9237 69.5085 13.8939 69.3909 13.8701C69.2438 13.8403 69.0939 13.8135 68.941 13.7897C68.7881 13.76 68.6382 13.7332 68.4912 13.7093C68.3383 13.6915 68.1854 13.6736 68.0325 13.6558C67.8797 13.6379 67.7268 13.623 67.5739 13.6111V12.191H82.8505V13.6111ZM100.403 12.2V13.62C98.7974 13.7808 97.836 13.9683 97.2539 14.4685C96.3454 15.2544 96.3631 16.7281 96.3631 19.4074V41.137C96.3807 43.3966 96.6718 44.7274 97.4479 45.2275C98.4182 45.8616 99.7765 45.9777 101.823 45.9777C104.337 45.9777 107.08 45.5222 108.852 41.5836H110.634L108.2 48.7464H85.0908V47.3263C86.6873 47.1656 87.1724 46.9155 87.7545 46.4153C88.4866 45.7812 88.6189 44.7452 88.6454 42.9858C88.6454 42.4499 88.6454 41.8604 88.6454 41.1906V19.7468C88.6454 19.077 88.6454 18.4875 88.6454 17.9517C88.6189 16.1922 88.4866 15.1562 87.7545 14.5221C87.1724 14.0219 86.6873 13.7719 85.0908 13.6111V12.2H100.394H100.403ZM125.875 13.62C124.279 13.7808 123.318 13.9683 122.735 14.4685C121.818 15.2544 121.836 16.7281 121.836 19.4074V41.137C121.853 43.3966 122.145 44.7274 122.921 45.2275C123.891 45.8616 125.249 45.9777 127.304 45.9777C129.809 45.9777 132.552 45.5222 134.325 41.5836H136.125L133.681 48.7464H110.581V47.3263C112.178 47.1656 112.663 46.9155 113.245 46.4153C113.977 45.7812 114.109 44.7452 114.127 42.9858C114.127 42.4499 114.127 41.8604 114.127 41.1906V19.7468C114.127 19.077 114.127 18.4875 114.127 17.9517C114.109 16.1922 113.977 15.1562 113.245 14.5221C112.663 14.0219 112.178 13.7719 110.581 13.6111V12.2H125.875V13.62Z" fill="black"/>
<path d="M22.1939 60.2498C21.8117 60.3867 21.4236 60.5028 21.0297 60.5981C20.6298 60.6934 20.23 60.7708 19.8301 60.8303C19.4244 60.8839 19.0187 60.9166 18.6129 60.9286V60.8482C18.6923 60.7946 18.7541 60.741 18.8246 60.6963C19.0422 60.5356 19.2568 60.3718 19.4685 60.2051C19.6802 60.0384 19.8889 59.8687 20.0947 59.696C20.3005 59.5174 20.5005 59.3388 20.6945 59.1602C20.8944 58.9756 21.0914 58.788 21.2855 58.5975C21.4619 58.4189 21.6383 58.2373 21.8147 58.0527C21.9911 57.8622 22.1645 57.6746 22.3351 57.49C22.5056 57.2995 22.6732 57.106 22.8378 56.9095C23.0025 56.713 23.1612 56.5136 23.3141 56.3111C23.8786 55.6145 24.399 54.9 24.8841 54.1766C25.1223 53.8104 25.3251 53.4353 25.5544 53.0691C25.7896 52.6761 26.019 52.2802 26.2424 51.8813C26.4659 51.4823 26.6805 51.0775 26.8863 50.6666C27.0921 50.2558 27.2891 49.842 27.4772 49.4252C27.6654 49.0084 27.8477 48.5886 28.0241 48.1659C28.4592 47.0703 28.8503 45.9569 29.1972 44.8256C29.5441 43.7003 29.8469 42.5601 30.1057 41.405C30.3644 40.2558 30.5761 39.0948 30.7407 37.9218C30.9054 36.7548 31.023 35.5818 31.0935 34.4029C31.1817 33.099 31.217 31.7772 31.217 30.4643C31.2082 29.1514 31.1817 27.8385 31.0935 26.5346C31.0289 25.564 30.9348 24.5995 30.8113 23.6409C30.6937 22.6822 30.5437 21.7266 30.3615 20.7739C30.1792 19.8272 29.9675 18.8865 29.7264 17.9517C29.4794 17.0109 29.206 16.0821 28.9061 15.1652C29.0766 14.665 29.2531 14.1678 29.4353 13.6736C29.6235 13.1795 29.8205 12.6912 30.0263 12.2089C30.2321 11.7266 30.4497 11.2473 30.679 10.771C30.9083 10.3006 31.1465 9.83324 31.3934 9.36881C31.6316 9.78858 31.8609 10.2173 32.0814 10.646C32.5459 11.5867 32.9693 12.5424 33.3515 13.5129C33.7396 14.4834 34.0865 15.4688 34.3923 16.4691C34.7039 17.4634 34.9744 18.4727 35.2038 19.4968C35.439 20.5149 35.6301 21.542 35.7771 22.578C35.877 23.233 35.9652 23.8879 36.0417 24.5429C36.1122 25.1979 36.174 25.8558 36.2269 26.5167C36.2739 27.1776 36.3092 27.8385 36.3327 28.4994C36.3563 29.1603 36.368 29.8212 36.368 30.4821C36.368 31.143 36.3563 31.801 36.3327 32.4559C36.3092 33.1168 36.2739 33.7777 36.2269 34.4387C36.174 35.0996 36.1122 35.7575 36.0417 36.4124C35.9652 37.0674 35.877 37.7224 35.7771 38.3773C35.6301 39.4133 35.439 40.4404 35.2038 41.4586C34.9744 42.4827 34.7039 43.4919 34.3923 44.4862C34.0865 45.4865 33.7396 46.4719 33.3515 47.4425C32.9693 48.413 32.5459 49.3686 32.0814 50.3094C31.9638 50.5475 31.8403 50.7827 31.7109 51.0149C31.5875 51.2471 31.4581 51.4794 31.3229 51.7116C31.1876 51.9438 31.0524 52.173 30.9171 52.3993C30.776 52.6255 30.6349 52.8518 30.4938 53.078C30.3115 53.3579 30.1233 53.6347 29.9293 53.9086C29.7352 54.1825 29.5353 54.4534 29.3295 54.7214C29.1237 54.9834 28.912 55.2424 28.6944 55.4984C28.4769 55.7544 28.2534 56.0075 28.0241 56.2575C27.8477 56.4421 27.6713 56.6237 27.4949 56.8023C27.3126 56.981 27.1274 57.1566 26.9392 57.3293C26.751 57.502 26.5599 57.6716 26.3659 57.8384C26.166 57.9991 25.9661 58.1569 25.7661 58.3117C25.6338 58.41 25.4927 58.5082 25.3516 58.5975C25.1928 58.7106 25.0311 58.8208 24.8665 58.928C24.7018 59.0351 24.5342 59.1393 24.3637 59.2406C24.1932 59.3358 24.0227 59.4311 23.8521 59.5264C23.6757 59.6157 23.4993 59.702 23.3229 59.7854C22.9525 59.958 22.5761 60.1128 22.1939 60.2498ZM31.5963 60.2498C31.2141 60.3867 30.826 60.5028 30.432 60.5981C30.038 60.6993 29.6411 60.7767 29.2413 60.8303C28.8356 60.8839 28.4298 60.9196 28.0241 60.9375V60.8571L28.2358 60.6963C28.4534 60.5415 28.668 60.3808 28.8797 60.2141C29.0913 60.0473 29.3001 59.8747 29.5059 59.696C29.7117 59.5234 29.9116 59.3448 30.1057 59.1602C30.3056 58.9756 30.5026 58.788 30.6966 58.5975C30.873 58.4189 31.0494 58.2373 31.2258 58.0527C31.4022 57.8681 31.5757 57.6806 31.7462 57.49C31.9109 57.2995 32.0755 57.106 32.2402 56.9095C32.4048 56.713 32.5665 56.5165 32.7253 56.3201C33.2809 55.6234 33.8102 54.9089 34.2953 54.1766C38.1673 48.3445 40.0196 41.3603 40.5047 34.4029C40.5929 33.099 40.637 31.7861 40.637 30.4732C40.637 29.1573 40.5929 27.8445 40.5047 26.5346C40.0284 19.5772 38.1673 12.593 34.2953 6.76091C34.0718 6.43938 33.8454 6.11489 33.6161 5.78741C33.7808 5.5552 33.9513 5.32596 34.1277 5.09971C34.2982 4.87345 34.4746 4.64719 34.6569 4.42094C34.8333 4.20063 35.0156 3.98033 35.2038 3.76003C35.3919 3.54568 35.583 3.33133 35.7771 3.11698C38.2026 5.14436 40.0637 7.81479 41.4837 10.637C41.9424 11.5718 42.3658 12.5245 42.7539 13.495C43.1419 14.4655 43.4918 15.451 43.8035 16.4512C44.1092 17.4515 44.3768 18.4608 44.6061 19.4789C44.8413 20.4971 45.0324 21.5242 45.1794 22.5602C45.2794 23.2151 45.3676 23.8701 45.444 24.525C45.5146 25.1859 45.5734 25.8439 45.6204 26.4988C45.6733 27.1597 45.7116 27.8206 45.7351 28.4816C45.7586 29.1425 45.7704 29.8034 45.7704 30.4643C45.7704 31.1252 45.7586 31.7861 45.7351 32.447C45.7116 33.1079 45.6733 33.7658 45.6204 34.4208C45.5734 35.0817 45.5146 35.7396 45.444 36.3946C45.3676 37.0555 45.2794 37.7104 45.1794 38.3594C45.0324 39.3955 44.8413 40.4255 44.6061 41.4496C44.3768 42.4678 44.1063 43.477 43.7946 44.4773C43.4889 45.4716 43.1419 46.4571 42.7539 47.4335C42.3658 48.404 41.9424 49.3567 41.4837 50.2915C39.949 53.346 37.8939 56.2397 35.1685 58.3117C35.0362 58.41 34.895 58.5082 34.7627 58.5975C34.5981 58.7106 34.4335 58.8208 34.2688 58.928C34.1042 59.0351 33.9366 59.1393 33.7661 59.2406C33.5955 59.3358 33.4221 59.4311 33.2457 59.5264C33.0751 59.6157 32.9017 59.702 32.7253 59.7854C32.3548 59.958 31.9785 60.1128 31.5963 60.2498ZM37.4264 60.9286V60.8482C39.9137 59.0887 42.013 56.6862 43.6888 54.1766C47.5697 48.3445 49.4219 41.3603 49.907 34.4029C49.9953 33.093 50.0394 31.7801 50.0394 30.4643C50.0335 29.1484 49.9894 27.8385 49.907 26.5346C49.4308 19.5772 47.5697 12.593 43.6888 6.76091C42.0218 4.24231 39.9137 1.83982 37.4264 0.0803807V0C39.9843 0.0625183 42.5334 1.08067 44.5708 2.60791C47.2963 4.67994 49.3426 7.58258 50.8861 10.6281C51.3447 11.5689 51.7681 12.5245 52.1562 13.495C52.5384 14.4655 52.8853 15.448 53.197 16.4423C53.5086 17.4426 53.7791 18.4518 54.0084 19.47C54.2378 20.4941 54.4289 21.5242 54.5818 22.5602C54.6817 23.2092 54.767 23.8641 54.8375 24.525C54.914 25.18 54.9757 25.8379 55.0228 26.4988C55.0757 27.1538 55.1139 27.8117 55.1374 28.4726C55.161 29.1335 55.1698 29.7944 55.1639 30.4553C55.1698 31.1163 55.161 31.7772 55.1374 32.4381C55.1139 33.099 55.0786 33.7599 55.0316 34.4208C54.9787 35.0817 54.9169 35.7396 54.8464 36.3946C54.7699 37.0495 54.6817 37.7045 54.5818 38.3594C54.4348 39.3955 54.2437 40.4225 54.0084 41.4407C53.7791 42.4589 53.5086 43.4681 53.197 44.4684C52.8912 45.4687 52.5443 46.4541 52.1562 47.4246C51.7681 48.3951 51.3447 49.3508 50.8861 50.2915C49.3514 53.346 47.2963 56.2397 44.5708 58.3117C42.5334 59.8479 39.9843 60.866 37.4264 60.9286ZM33.8543 0.67877C34.2365 0.541825 34.6246 0.42572 35.0185 0.330454C35.4125 0.235188 35.8094 0.160761 36.2093 0.107174C36.615 0.047633 37.0207 0.0119082 37.4264 0V0.0893119C37.3559 0.133968 37.2853 0.187555 37.2236 0.241142C37.006 0.401903 36.7885 0.565642 36.5709 0.732357C36.3592 0.899073 36.1534 1.06877 35.9535 1.24143C35.7477 1.4141 35.5448 1.59273 35.3449 1.77731C35.145 1.96188 34.9509 2.14646 34.7627 2.33104C34.5805 2.51562 34.4011 2.7002 34.2247 2.88477C34.0483 3.06935 33.8778 3.25691 33.7131 3.44744C33.5426 3.63797 33.375 3.83148 33.2104 4.02796C33.0457 4.2185 32.884 4.41498 32.7253 4.61742C32.1696 5.31406 31.6404 6.02855 31.1553 6.76091C30.926 7.11816 30.7143 7.49327 30.4938 7.85944C30.2527 8.25242 30.0204 8.65134 29.797 9.05622C29.5735 9.45515 29.3589 9.86003 29.1531 10.2709C28.9473 10.6817 28.7503 11.0955 28.5621 11.5123C28.374 11.9291 28.1917 12.3518 28.0153 12.7805C27.5802 13.8761 27.1891 14.9865 26.8422 16.1119C26.4953 17.2431 26.1924 18.3834 25.9337 19.5325C25.675 20.6876 25.4633 21.8487 25.2987 23.0157C25.134 24.1886 25.0164 25.3646 24.9458 26.5435C24.8576 27.8474 24.8224 29.1603 24.8224 30.4821C24.8224 31.795 24.8576 33.1079 24.9458 34.4119C25.0105 35.3764 25.1046 36.341 25.2281 37.3056C25.3516 38.2642 25.5045 39.2168 25.6867 40.1635C25.869 41.1162 26.0807 42.0599 26.3218 42.9947C26.5629 43.9295 26.8334 44.8584 27.1333 45.7813C26.9686 46.2814 26.7952 46.7786 26.6129 47.2728C26.4247 47.767 26.2277 48.2552 26.0219 48.7375C25.8102 49.2257 25.5927 49.708 25.3692 50.1843C25.1399 50.6547 24.8988 51.1221 24.646 51.5865C24.4166 51.1668 24.1785 50.7381 23.958 50.3094C23.4993 49.3686 23.076 48.413 22.6879 47.4425C22.3057 46.4719 21.9587 45.4865 21.6471 44.4862C21.3354 43.4859 21.065 42.4737 20.8356 41.4496C20.6063 40.4315 20.4152 39.4044 20.2623 38.3684C20.1682 37.7134 20.083 37.0585 20.0065 36.4035C19.9301 35.7426 19.8683 35.0847 19.8213 34.4297C19.7743 33.7688 19.739 33.1079 19.7155 32.447C19.6919 31.7861 19.6802 31.1252 19.6802 30.4643C19.6802 29.8034 19.6919 29.1425 19.7155 28.4816C19.739 27.8206 19.7743 27.1627 19.8213 26.5078C19.8683 25.8469 19.9301 25.1889 20.0065 24.534C20.083 23.8731 20.1682 23.2181 20.2623 22.5691C20.4152 21.5331 20.6063 20.503 20.8356 19.4789C21.0708 18.4608 21.3413 17.4515 21.6471 16.4512C21.9587 15.4569 22.3057 14.4715 22.6879 13.495C23.076 12.5245 23.4993 11.5718 23.958 10.637C24.0815 10.3989 24.205 10.1637 24.3284 9.93148C24.4578 9.69331 24.5901 9.45813 24.7253 9.22592C24.8547 8.9937 24.9899 8.76447 25.1311 8.53821C25.2663 8.31196 25.4074 8.0857 25.5544 7.85944C25.7367 7.5796 25.9249 7.30273 26.1189 7.02884C26.313 6.75495 26.5129 6.48404 26.7187 6.21611C26.9245 5.94817 27.1362 5.68619 27.3538 5.43016C27.5713 5.17413 27.7948 4.92406 28.0241 4.67994C28.1946 4.49536 28.371 4.31079 28.5533 4.12621C28.7356 3.94758 28.9208 3.77491 29.109 3.6082C29.2972 3.43553 29.4883 3.26584 29.6823 3.09912C29.8763 2.93836 30.0763 2.78058 30.2821 2.62577C30.4144 2.51859 30.5555 2.42928 30.6878 2.33104C30.8466 2.21791 31.0112 2.11074 31.1817 2.00952C31.3464 1.90234 31.514 1.79815 31.6845 1.69693C31.855 1.59571 32.0255 1.50044 32.1961 1.41113C32.3725 1.32182 32.5489 1.23548 32.7253 1.15212C33.0898 0.973499 33.4662 0.815715 33.8543 0.67877ZM24.4519 0.67877C24.8341 0.547779 25.2222 0.431674 25.6162 0.330454C26.0102 0.235188 26.4071 0.160761 26.8069 0.107174C27.2126 0.047633 27.6184 0.0119082 28.0241 0V0.0893119C27.9535 0.133968 27.883 0.187555 27.8124 0.241142C27.5949 0.401903 27.3802 0.565642 27.1685 0.732357C26.9569 0.899073 26.7481 1.07174 26.5423 1.25037C26.3365 1.42899 26.1336 1.60761 25.9337 1.78624C25.7397 1.97082 25.5456 2.15837 25.3516 2.3489C25.1693 2.53348 24.9929 2.71806 24.8224 2.90264C24.646 3.08721 24.4725 3.27477 24.302 3.4653C24.1314 3.65583 23.9639 3.84934 23.7992 4.04583C23.6346 4.23636 23.4729 4.43285 23.3141 4.63529C22.7584 5.33192 22.2292 6.04641 21.7529 6.77877C17.8809 12.6019 16.0198 19.5861 15.5435 26.5524C15.4553 27.8564 15.4112 29.1693 15.4112 30.4821C15.4112 31.795 15.4553 33.1168 15.5435 34.4208C16.011 41.3782 17.8809 48.3534 21.7529 54.1944C21.9705 54.516 22.1969 54.8375 22.4321 55.159C22.2616 55.3912 22.091 55.6234 21.9205 55.8556C21.7441 56.0819 21.5677 56.3052 21.3913 56.5255C21.209 56.7458 21.0238 56.9661 20.8356 57.1864C20.6533 57.4007 20.4652 57.6121 20.2711 57.8205C17.8456 55.8021 15.9845 53.1227 14.5645 50.3094C14.0999 49.3686 13.6736 48.413 13.2855 47.4425C12.9033 46.4719 12.5564 45.4865 12.2447 44.4862C11.9331 43.4859 11.6626 42.4767 11.4333 41.4586C11.204 40.4345 11.0129 39.4044 10.86 38.3684C10.76 37.7194 10.6747 37.0644 10.6042 36.4035C10.5277 35.7486 10.466 35.0906 10.419 34.4297C10.3719 33.7748 10.3366 33.1168 10.3131 32.4559C10.2896 31.795 10.2778 31.1341 10.2778 30.4732C10.2778 29.8123 10.2896 29.1514 10.3131 28.4905C10.3366 27.8296 10.3719 27.1687 10.419 26.5078C10.4719 25.8528 10.5336 25.1949 10.6042 24.534C10.6806 23.879 10.7659 23.2241 10.86 22.5691C11.0129 21.5331 11.204 20.506 11.4333 19.4878C11.6685 18.4697 11.939 17.4605 12.2447 16.4602C12.5564 15.4599 12.9063 14.4745 13.2943 13.504C13.6766 12.5334 14.0999 11.5808 14.5645 10.646C16.0992 7.59151 18.1455 4.68887 20.8709 2.62577C21.012 2.51859 21.1532 2.42928 21.2855 2.33104C21.4442 2.21791 21.6089 2.11074 21.7794 2.00952C21.944 1.90234 22.1116 1.79815 22.2821 1.69693C22.4527 1.59571 22.6232 1.50044 22.7937 1.41113C22.9701 1.32182 23.1465 1.23548 23.3229 1.15212C23.6875 0.973499 24.0638 0.815715 24.4519 0.67877ZM18.6218 0V0.0803807C16.1256 1.83982 14.0264 4.24231 12.3682 6.76091C8.47851 12.593 6.60863 19.5772 6.1588 26.5346C6.07059 27.8385 6.02649 29.1514 6.02649 30.4643C6.02649 31.7772 6.07059 33.099 6.1588 34.4029C6.62627 41.3603 8.48733 48.3445 12.3682 54.1766C14.0264 56.6862 16.1256 59.0887 18.6306 60.866V60.9553C16.0727 60.8839 13.5149 59.8657 11.4862 58.3296C8.75194 56.2575 6.70565 53.3549 5.17093 50.3094C4.7064 49.3686 4.28009 48.413 3.892 47.4425C3.50979 46.4719 3.16286 45.4865 2.85122 44.4862C2.53957 43.4859 2.26908 42.4737 2.03976 41.4496C1.80455 40.4315 1.61345 39.4044 1.46644 38.3684C1.36648 37.7134 1.27828 37.0585 1.20184 36.4035C1.13127 35.7426 1.06953 35.0847 1.01661 34.4297C0.969571 33.7688 0.93429 33.1079 0.910769 32.447C0.887249 31.7861 0.875488 31.1252 0.875488 30.4643C0.875488 29.8034 0.887249 29.1425 0.910769 28.4816C0.93429 27.8206 0.969571 27.1627 1.01661 26.5078C1.06365 25.8469 1.12539 25.1889 1.20184 24.534C1.2724 23.8731 1.35766 23.2181 1.45762 22.5691C1.61051 21.5331 1.80455 20.503 2.03976 19.4789C2.26908 18.4608 2.53957 17.4515 2.85122 16.4512C3.16286 15.451 3.50979 14.4655 3.892 13.495C4.28009 12.5245 4.7064 11.5718 5.17093 10.637C6.69683 7.59151 8.74312 4.68887 11.4774 2.62577C13.506 1.08067 16.0639 0.0625183 18.6218 0ZM29.6647 57.8026C29.5235 57.6836 29.3824 57.5615 29.2413 57.4365C29.0943 57.3114 28.9532 57.1834 28.8179 57.0524C28.6827 56.9214 28.5474 56.7875 28.4122 56.6505C28.2769 56.5195 28.1446 56.3826 28.0153 56.2397C28.2446 55.9956 28.4681 55.7455 28.6856 55.4895C28.9032 55.2334 29.1149 54.9744 29.3207 54.7124C29.5265 54.4445 29.7264 54.1736 29.9204 53.8997C30.1145 53.6258 30.3027 53.346 30.4849 53.0602C30.7054 53.4353 30.9171 53.8104 31.1553 54.1676C31.3728 54.4892 31.5992 54.8137 31.8344 55.1411C31.6639 55.3734 31.4934 55.6026 31.3229 55.8288C31.1465 56.0611 30.9701 56.2873 30.7936 56.5076C30.6114 56.7279 30.4261 56.9482 30.238 57.1685C30.0557 57.3829 29.8675 57.5972 29.6735 57.8116M35.389 59.2048C35.6065 59.4013 35.8241 59.5919 36.0417 59.7764C36.2651 59.967 36.4915 60.1515 36.7208 60.3302C36.9502 60.5088 37.1854 60.6815 37.4264 60.8482V60.9286C37.0207 60.9166 36.615 60.8839 36.2093 60.8303C35.8094 60.7708 35.4125 60.6934 35.0185 60.5981C34.6246 60.5028 34.2365 60.3867 33.8543 60.2498C33.4662 60.1128 33.0898 59.958 32.7253 59.7854C32.9017 59.702 33.0781 59.6127 33.2545 59.5174C33.425 59.4281 33.5955 59.3328 33.7661 59.2316C33.9366 59.1364 34.1042 59.0351 34.2688 58.928C34.4335 58.8208 34.5981 58.7106 34.7627 58.5975C34.9685 58.7999 35.1773 59.0024 35.389 59.2048ZM26.3747 60.7589C26.1101 60.7053 25.8484 60.6487 25.5897 60.5892C25.331 60.5237 25.0723 60.4492 24.8135 60.3659C24.5607 60.2825 24.3108 60.1932 24.0638 60.098C23.811 60.0027 23.564 59.8985 23.3229 59.7854C23.4993 59.702 23.6757 59.6127 23.8521 59.5174C24.0227 59.4281 24.1932 59.3328 24.3637 59.2316C24.5342 59.1364 24.7018 59.0351 24.8665 58.928C25.0311 58.8208 25.1928 58.7106 25.3516 58.5975C25.4927 58.7345 25.6368 58.8714 25.7838 59.0083C25.9308 59.1453 26.0778 59.2793 26.2248 59.4103C26.3718 59.5472 26.5217 59.6782 26.6746 59.8032C26.8275 59.9342 26.9804 60.0592 27.1333 60.1783C27.3861 60.3808 27.639 60.5743 27.8918 60.7589C27.6448 60.7946 27.389 60.8392 27.1333 60.866C26.8775 60.8392 26.6305 60.7946 26.3747 60.7589ZM27.1333 60.866C27.389 60.8392 27.6537 60.7946 27.8918 60.7589C27.9359 60.7857 27.98 60.8214 28.0241 60.8482V60.9286C27.7242 60.9286 27.4331 60.9018 27.1333 60.866ZM26.3747 3.12592C26.5217 3.25095 26.6658 3.37599 26.8069 3.50102C26.948 3.62606 27.0892 3.75408 27.2303 3.88507C27.3655 4.01606 27.5008 4.14705 27.636 4.27804C27.7654 4.41498 27.8947 4.55193 28.0241 4.68887C27.8007 4.93299 27.5802 5.18306 27.3626 5.43909C27.145 5.69512 26.9333 5.9571 26.7275 6.22504C26.5217 6.48702 26.3218 6.75793 26.1278 7.03778C25.9337 7.31166 25.7455 7.58853 25.5633 7.86837C25.3339 7.49327 25.1311 7.12709 24.8929 6.76984C24.6695 6.44236 24.4431 6.11786 24.2138 5.79634C24.3784 5.56413 24.5489 5.33192 24.7253 5.09971C24.8959 4.87345 25.0723 4.64719 25.2546 4.42094C25.4368 4.20063 25.6191 3.98033 25.8014 3.76003C25.9896 3.54568 26.1807 3.33133 26.3747 3.11698M20.6592 1.73265C20.4417 1.53616 20.2212 1.34265 19.9977 1.15212C19.7743 0.967545 19.5479 0.785944 19.3186 0.607321C19.0892 0.428697 18.857 0.25305 18.6218 0.0803807V0C19.0275 0.0119082 19.4303 0.047633 19.8301 0.107174C20.2359 0.160761 20.6357 0.235188 21.0297 0.330454C21.4236 0.431674 21.8117 0.547779 22.1939 0.67877C22.5761 0.815715 22.9525 0.973499 23.3229 1.15212C23.1465 1.23548 22.9701 1.32182 22.7937 1.41113C22.6232 1.50044 22.4527 1.59571 22.2821 1.69693C22.1116 1.79815 21.944 1.90234 21.7794 2.00952C21.6147 2.11074 21.4501 2.21791 21.2855 2.33104C21.0797 2.1286 20.8709 1.92914 20.6592 1.73265ZM32.1961 1.41113C32.0255 1.50044 31.855 1.59571 31.6845 1.69693C31.514 1.79815 31.3464 1.90234 31.1817 2.00952C31.0112 2.11074 30.8466 2.21791 30.6878 2.33104C30.5467 2.19409 30.4056 2.05715 30.2644 1.9202C30.1174 1.78326 29.9704 1.64929 29.8234 1.5183C29.6705 1.38731 29.5206 1.25632 29.3736 1.12533C29.2207 1.00029 29.0649 0.875256 28.9061 0.75022C28.6592 0.553733 28.4063 0.363202 28.1476 0.178624C28.1035 0.15183 28.0682 0.116105 28.0241 0.0803807V0C28.324 0.00893119 28.6151 0.0357247 28.9061 0.0625183C29.1707 0.0893119 29.4089 0.133968 29.6735 0.178624C29.9381 0.226257 30.1998 0.282821 30.4585 0.348316C30.7172 0.413812 30.973 0.485261 31.2258 0.562665C31.4846 0.646022 31.7374 0.735334 31.9844 0.8306C32.2372 0.93182 32.4842 1.03899 32.7253 1.15212C32.5489 1.23548 32.3725 1.32182 32.1961 1.41113Z" fill="#E30613"/>
</g>
<defs>
<clipPath id="clip0_7349_15336">
<rect width="135.39" height="61" fill="white" transform="translate(0.804932)"/>
</clipPath>
</defs>
</svg>
